<?xml version="1.0" encoding="UTF-8" standalone="no"?>
<svg xmlns="http://www.w3.org/2000/svg" version="1.1" width="169.83063" height="171.31712">
  <path d="m 168.345,69.86603 c -8.7275,-46.4865 -53.45437,-77.099 -99.885,-68.384 -0.337875,0.0625 -0.665625,0.1475 -1.002,0.21375 41.5615,-5.2425 80.5395,22.76875 88.3795,64.5375 8.14,43.36912 -20.3775,85.12112 -63.705625,93.25389 C 50.420375,167.31724 10.204587,141.11953 0,100.45203 c 0.05712888,0.32812 0.097168,0.65675 0.15918,0.98625 8.7329075,46.49125 53.44732,77.12115 99.89995,68.39361 46.43837,-8.71337 77.00712,-53.46924 68.28587,-99.96586"
     style="fill:#f46e20;fill-opacity:1;fill-rule:nonzero;stroke:none" />
  <path d="m 121.29937,51.07703 c -1.42099,-7.79875 -8.86724,-12.95875 -16.66512,-11.545 -7.766125,1.4075 -12.932125,8.871125 -11.516125,16.65975 1.4185,7.793 8.874505,12.961375 16.652875,11.555125 7.7905,-1.421375 12.94187,-8.88675 11.52837,-16.669875 z m 45.70313,19.370125 c -0.37625,-2.066875 -1.57875,-3.921875 -3.495,-5.556625 -5.9125,6.38525 -26.045,14.289 -52.69937,20.80175 1.12062,6.555125 2.06637,12.92625 2.84325,19.03075 32.84612,-9.26125 55.37737,-23.11575 53.35112,-34.275875 z M 3.4169875,94.00428 C 2.2016625,96.208905 1.729,98.36653 2.104975,100.4344 c 2.046875,11.26275 28.4814,16.28963 62.948275,13.22075 9.264625,33.36963 23.27,56.36327 34.5175,54.32078 2.34375,-0.42626 4.41213,-1.92529 6.19825,-4.3203 C 98.2275,155.4334 88.55175,126.98965 81.7095,91.728905 44.67625,98.133655 13.180625,98.87728 3.4169875,94.00428 z M 76.8115,61.112155 C 73.4995,34.46828 73.519,13.15328 76.896,4.77828 74.3765,3.15703 71.90825,2.47953 69.561,2.90578 c -11.201625,2.0375 -16.224125,28.285 -13.2255,62.584375 6.493125,-1.557625 13.3495,-3.03125 20.476,-4.378"
     style="fill:#f46e20;fill-opacity:1;fill-rule:nonzero;stroke:none" />
</svg>
