<?xml version="1.0" encoding="UTF-8" standalone="no"?>
<svg xmlns="http://www.w3.org/2000/svg" height="128" width="128" version="1.0">
 <path fill-rule="evenodd" fill="#f7f8f9" d="m27.165 43.143c-6.7485 14.467-4.5106 32.327 6.9459 44.717 15.197 16.426 40.808 17.407 57.195 2.2495 16.404-15.175 17.404-40.765 2.207-57.193-12.232-13.23-31.341-16.455-46.875-9.184l-3.3955-6.8414-7.3137 21.841 20.495 5.8154-3.3665-7.0214c9.722-4.5803 21.69-2.6134 29.348 5.6663 9.5168 10.291 8.8702 26.289-1.3977 35.787-10.245 9.4761-26.268 8.8934-35.783-1.3977-8.1791-8.8392-8.8121-22.013-2.2088-31.57l-15.851-2.867z"/>
</svg>
