<?xml version="1.0" encoding="UTF-8" standalone="no"?>
<!-- Created with Inkscape (http://www.inkscape.org/) -->
<svg
   xmlns:dc="http://purl.org/dc/elements/1.1/"
   xmlns:cc="http://creativecommons.org/ns#"
   xmlns:rdf="http://www.w3.org/1999/02/22-rdf-syntax-ns#"
   xmlns:svg="http://www.w3.org/2000/svg"
   xmlns="http://www.w3.org/2000/svg"
   xmlns:sodipodi="http://sodipodi.sourceforge.net/DTD/sodipodi-0.dtd"
   xmlns:inkscape="http://www.inkscape.org/namespaces/inkscape"
   width="128"
   height="128"
   id="svg4197"
   version="1.1"
   inkscape:version="0.46"
   sodipodi:docname="settings.svg"
   sodipodi:version="0.32"
   inkscape:output_extension="org.inkscape.output.svg.inkscape">
  <defs
     id="defs4199">
    <inkscape:perspective
       sodipodi:type="inkscape:persp3d"
       inkscape:vp_x="0 : 64 : 1"
       inkscape:vp_y="0 : 1000 : 0"
       inkscape:vp_z="128 : 64 : 1"
       inkscape:persp3d-origin="64 : 42.666667 : 1"
       id="perspective2577" />
  </defs>
  <sodipodi:namedview
     id="base"
     pagecolor="#ffffff"
     bordercolor="#666666"
     borderopacity="1.0"
     inkscape:pageopacity="0.0"
     inkscape:pageshadow="2"
     inkscape:zoom="2.8"
     inkscape:cx="93.164662"
     inkscape:cy="62.343341"
     inkscape:document-units="px"
     inkscape:current-layer="layer1"
     showgrid="false"
     inkscape:window-width="754"
     inkscape:window-height="726"
     inkscape:window-x="419"
     inkscape:window-y="25"
     inkscape:window-maximized="0" />
  <metadata
     id="metadata4202">
    <rdf:RDF>
      <cc:Work
         rdf:about="">
        <dc:format>image/svg+xml</dc:format>
        <dc:type
           rdf:resource="http://purl.org/dc/dcmitype/StillImage" />
        <dc:title />
      </cc:Work>
    </rdf:RDF>
  </metadata>
  <g
     inkscape:label="Layer 1"
     inkscape:groupmode="layer"
     id="layer1"
     transform="translate(0,-924.36218)">
    <path
       d="m 61.375258,943.21003 c -0.894049,0.0605 -1.763063,0.19952 -2.641221,0.30004 l -0.06009,0 -2.10098,11.46541 c -3.424412,0.77981 -6.646103,2.10338 -9.544426,3.9018 l -9.424368,-6.78325 c -2.547654,1.9779 -4.865998,4.28479 -6.903205,6.78325 l 6.54303,9.54437 c -1.986645,3.03603 -3.480587,6.50268 -4.321994,10.14466 -1.51e-4,0.0189 -1.14e-4,0.0566 0,0.0605 l -11.405289,1.80087 c -0.208523,1.7032 -0.300145,3.46325 -0.300145,5.22236 0,1.43941 0.03967,2.85958 0.180069,4.26193 l 11.405287,2.04106 c 0.811156,3.96077 2.352053,7.65965 4.502083,10.92507 l -6.783148,9.3046 c 1.942658,2.4116 4.185424,4.6075 6.603079,6.5429 l 9.604456,-6.603 c 3.356619,2.1414 7.103605,3.6427 11.165173,4.3821 l 1.800831,11.3452 c 1.279676,0.1171 2.591964,0.1191 3.901813,0.1191 1.849223,0 3.615573,-0.07 5.402499,-0.3002 l 2.161007,-11.5853 c 3.856311,-0.9596 7.478932,-2.6245 10.62493,-4.8625 l 9.244297,6.7233 c 2.397327,-2.0396 4.589548,-4.384 6.483005,-6.9034 l -6.723123,-9.7246 c 1.820736,-3.14452 3.08233,-6.61391 3.721728,-10.32464 l 11.345274,-1.80092 c 0.0996,-1.18395 0.12,-2.33218 0.12,-3.54165 0,-2.10185 -0.24432,-4.16272 -0.54027,-6.18297 L 93.910207,977.3652 c -0.903189,-3.33512 -2.385119,-6.44674 -4.261978,-9.24432 l 6.783148,-9.30422 c -2.102548,-2.57139 -4.500995,-4.94667 -7.143324,-6.96333 l -9.784545,6.7232 c -2.812087,-1.66315 -5.838404,-2.9393 -9.124149,-3.66165 l -1.800836,-11.40536 c -1.639093,-0.19289 -3.291677,-0.30023 -4.982314,-0.30023 -0.456936,0 -0.927191,-0.0189 -1.380649,0 -0.221051,0 -0.439816,-0.0189 -0.6603,0 -0.05971,0 -0.120551,0 -0.180069,0 z m 1.560734,29.17349 c 0.219295,-0.0189 0.438249,0 0.660302,0 7.105608,0 12.905976,5.80036 12.905976,12.90596 1.9e-5,7.10562 -5.800368,12.84611 -12.905976,12.84611 -7.105626,0 -12.845967,-5.74049 -12.845967,-12.84611 0,-6.88359 5.387328,-12.56093 12.185665,-12.90596 z"
       id="path3243"
       inkscape:r_cx="true"
       inkscape:r_cy="true"
       style="color:#000000;fill:#f7f8f9;fill-opacity:1;fill-rule:nonzero;stroke:none;stroke-width:1;marker:none;visibility:visible;display:inline;overflow:visible"
       inkscape:connector-curvature="0" />
  </g>
</svg>
